<?xml version="1.0" standalone="no"?>
<!DOCTYPE svg PUBLIC "-//W3C//DTD SVG 20010904//EN"
 "http://www.w3.org/TR/2001/REC-SVG-20010904/DTD/svg10.dtd">
<svg version="1.0" xmlns="http://www.w3.org/2000/svg"
 width="256.000000pt" height="256.000000pt" viewBox="0 0 256.000000 256.000000"
 preserveAspectRatio="xMidYMid meet">
<metadata>
Created by potrace 1.14, written by Peter Selinger 2001-2017
</metadata>
<g transform="translate(0.000000,256.000000) scale(0.100000,-0.100000)"
fill="#000000" stroke="none">
<path d="M1077 1964 c-1 -1 -112 -5 -247 -9 -135 -4 -281 -9 -325 -10 -44 -2
-108 -3 -143 -4 l-63 -1 3 -87 3 -88 85 -3 85 -3 -1 -105 c-1 -68 3 -107 10
-112 11 -7 23 -9 75 -11 l30 -1 -4 -282 c-8 -509 -5 -619 17 -645 12 -15 164
-18 173 -4 3 5 6 208 6 450 1 243 3 450 6 461 5 19 14 19 317 15 171 -2 352
-7 401 -9 50 -3 137 -8 194 -11 58 -3 108 -8 112 -11 5 -3 6 -130 3 -282 -5
-273 -4 -478 1 -537 2 -16 4 -37 4 -46 1 -24 45 -39 115 -39 50 0 65 4 70 17
4 9 8 194 10 412 2 218 4 415 5 439 l1 42 50 0 c64 0 68 10 63 130 l-4 95 68
-1 c37 -1 78 3 91 7 22 8 23 13 21 96 -2 88 -13 132 -33 135 -14 2 -1197 4
-1199 2z m523 -69 c69 -3 186 -8 260 -11 74 -3 185 -8 245 -9 61 -2 113 -4
116 -4 14 -2 -5 -51 -20 -51 -9 0 -261 -3 -561 -5 -483 -5 -1023 -12 -1225
-18 l-70 -2 -3 58 -3 58 568 -6 c312 -3 624 -8 693 -10z m-345 -159 c209 -3
421 -8 470 -11 149 -10 227 -14 278 -14 l47 -1 0 -55 c0 -30 -3 -56 -7 -56
-25 -4 -300 -8 -818 -13 -324 -3 -616 -8 -647 -11 -55 -5 -58 -4 -59 17 -4 83
-5 144 -2 149 1 4 83 5 180 3 98 -2 349 -6 558 -8z m-519 -336 c-3 -63 -8
-128 -11 -145 -2 -16 -7 -48 -10 -70 -3 -22 -8 -141 -11 -265 -3 -124 -9 -229
-15 -235 -20 -20 -28 16 -34 165 -4 85 -8 173 -10 195 -2 22 -7 137 -11 255
l-6 216 57 -1 58 0 -7 -115z m1238 55 c-1 -51 -14 -204 -19 -230 -12 -57 -25
-313 -25 -497 0 -31 -4 -38 -20 -38 -18 0 -20 7 -21 68 0 68 -4 146 -14 262
-3 36 -8 159 -11 273 l-6 208 58 -3 59 -3 -1 -40z"/>
</g>
</svg>
